<svg width="40" height="41" viewBox="0 0 40 41" fill="none" xmlns="http://www.w3.org/2000/svg">
<path d="M20 4.5625C16.8479 4.5625 13.7665 5.49722 11.1456 7.24845C8.5247 8.99969 6.48195 11.4888 5.27568 14.401C4.06941 17.3132 3.75379 20.5177 4.36874 23.6093C4.98369 26.7008 6.50159 29.5406 8.73049 31.7695C10.9594 33.9984 13.7992 35.5163 16.8908 36.1313C19.9823 36.7462 23.1868 36.4306 26.099 35.2243C29.0112 34.0181 31.5003 31.9753 33.2516 29.3544C35.0028 26.7335 35.9375 23.6521 35.9375 20.5C35.9325 16.2746 34.2518 12.2238 31.264 9.23597C28.2763 6.24818 24.2254 4.56746 20 4.5625ZM20 34.5625C17.2187 34.5625 14.4999 33.7377 12.1873 32.1925C9.87473 30.6473 8.07231 28.4511 7.00795 25.8815C5.94359 23.3119 5.66511 20.4844 6.20771 17.7565C6.75032 15.0287 8.08964 12.523 10.0563 10.5563C12.023 8.58963 14.5287 7.25031 17.2565 6.70771C19.9844 6.1651 22.8119 6.44359 25.3815 7.50794C27.9511 8.5723 30.1473 10.3747 31.6925 12.6873C33.2378 14.9999 34.0625 17.7187 34.0625 20.5C34.0584 24.2283 32.5755 27.8028 29.9391 30.4391C27.3028 33.0755 23.7283 34.5584 20 34.5625ZM26.9125 17.3375C27.0881 17.5133 27.1867 17.7516 27.1867 18C27.1867 18.2484 27.0881 18.4867 26.9125 18.6625L20.6625 24.9125C20.4867 25.0881 20.2484 25.1867 20 25.1867C19.7516 25.1867 19.5133 25.0881 19.3375 24.9125L13.0875 18.6625C12.9219 18.4848 12.8318 18.2497 12.836 18.0068C12.8403 17.764 12.9387 17.5322 13.1105 17.3605C13.2822 17.1887 13.514 17.0903 13.7569 17.086C13.9997 17.0817 14.2348 17.1719 14.4125 17.3375L20 22.9234L25.5875 17.3375C25.7633 17.1619 26.0016 17.0633 26.25 17.0633C26.4984 17.0633 26.7367 17.1619 26.9125 17.3375Z" fill="#A6CE39"/>
</svg>
