<svg width="40" height="41" viewBox="0 0 40 41" fill="none" xmlns="http://www.w3.org/2000/svg">
<path d="M20 4.5625C16.8479 4.5625 13.7665 5.49722 11.1456 7.24845C8.5247 8.99969 6.48195 11.4888 5.27568 14.401C4.06941 17.3132 3.75379 20.5177 4.36874 23.6093C4.98369 26.7008 6.50159 29.5406 8.73049 31.7695C10.9594 33.9984 13.7992 35.5163 16.8908 36.1313C19.9823 36.7462 23.1868 36.4306 26.099 35.2243C29.0112 34.0181 31.5003 31.9753 33.2516 29.3544C35.0028 26.7335 35.9375 23.6521 35.9375 20.5C35.9325 16.2746 34.2518 12.2238 31.264 9.23597C28.2763 6.24818 24.2254 4.56746 20 4.5625ZM20 34.5625C17.2187 34.5625 14.4999 33.7377 12.1873 32.1925C9.87473 30.6473 8.07231 28.4511 7.00795 25.8815C5.94359 23.3119 5.66511 20.4844 6.20771 17.7565C6.75032 15.0287 8.08964 12.523 10.0563 10.5563C12.023 8.58963 14.5287 7.25031 17.2565 6.70771C19.9844 6.1651 22.8119 6.44359 25.3815 7.50794C27.9511 8.5723 30.1473 10.3747 31.6925 12.6873C33.2378 14.9999 34.0625 17.7187 34.0625 20.5C34.0584 24.2283 32.5755 27.8028 29.9391 30.4391C27.3028 33.0755 23.7283 34.5584 20 34.5625ZM26.9125 22.3375C27.0046 22.4233 27.0785 22.5268 27.1297 22.6418C27.181 22.7568 27.2085 22.881 27.2107 23.0068C27.213 23.1327 27.1898 23.2578 27.1427 23.3745C27.0955 23.4912 27.0253 23.5973 26.9363 23.6863C26.8473 23.7753 26.7412 23.8455 26.6245 23.8927C26.5078 23.9398 26.3827 23.963 26.2569 23.9607C26.131 23.9585 26.0068 23.931 25.8918 23.8797C25.7768 23.8285 25.6733 23.7546 25.5875 23.6625L20 18.0766L14.4125 23.6625C14.2348 23.8281 13.9997 23.9183 13.7569 23.914C13.514 23.9097 13.2822 23.8113 13.1105 23.6395C12.9387 23.4678 12.8403 23.236 12.836 22.9932C12.8318 22.7503 12.9219 22.5152 13.0875 22.3375L19.3375 16.0875C19.5133 15.9119 19.7516 15.8133 20 15.8133C20.2484 15.8133 20.4867 15.9119 20.6625 16.0875L26.9125 22.3375Z" fill="#A6CE39"/>
</svg>
