<svg width="24" height="24" viewBox="0 0 24 24" fill="none" xmlns="http://www.w3.org/2000/svg">
<path d="M16.9997 12.0001C16.9956 11.5617 16.819 11.1426 16.508 10.8335L12.933 7.25014C12.7769 7.09493 12.5657 7.00781 12.3455 7.00781C12.1254 7.00781 11.9141 7.09493 11.758 7.25014C11.6799 7.32761 11.6179 7.41978 11.5756 7.52133C11.5333 7.62288 11.5115 7.7318 11.5115 7.84181C11.5115 7.95182 11.5333 8.06074 11.5756 8.16229C11.6179 8.26384 11.6799 8.356 11.758 8.43347L14.4997 11.1668H6.16634C5.94533 11.1668 5.73337 11.2546 5.57709 11.4109C5.42081 11.5672 5.33301 11.7791 5.33301 12.0001C5.33301 12.2212 5.42081 12.4331 5.57709 12.5894C5.73337 12.7457 5.94533 12.8335 6.16634 12.8335H14.4997L11.758 15.5751C11.6011 15.731 11.5125 15.9427 11.5117 16.1639C11.5109 16.385 11.598 16.5974 11.7538 16.7543C11.9097 16.9112 12.1214 16.9998 12.3426 17.0006C12.5637 17.0014 12.7761 16.9143 12.933 16.7585L16.508 13.1751C16.821 12.864 16.9978 12.4415 16.9997 12.0001Z" fill="#101223"/>
</svg>
