<svg width="24" height="24" viewBox="0 0 24 24" fill="none" xmlns="http://www.w3.org/2000/svg">
<path d="M20.2959 9.79594L12.7959 17.2959C12.6914 17.4008 12.5672 17.484 12.4305 17.5408C12.2937 17.5976 12.1471 17.6268 11.9991 17.6268C11.851 17.6268 11.7044 17.5976 11.5676 17.5408C11.4309 17.484 11.3067 17.4008 11.2022 17.2959L3.70218 9.79594C3.49083 9.58459 3.3721 9.29795 3.3721 8.99906C3.3721 8.70018 3.49083 8.41353 3.70218 8.20219C3.91352 7.99084 4.20017 7.87211 4.49905 7.87211C4.79794 7.87211 5.08458 7.99084 5.29593 8.20219L12 14.9062L18.7041 8.20125C18.9154 7.98991 19.202 7.87117 19.5009 7.87117C19.7998 7.87117 20.0865 7.98991 20.2978 8.20125C20.5091 8.4126 20.6279 8.69924 20.6279 8.99813C20.6279 9.29701 20.5091 9.58366 20.2978 9.795L20.2959 9.79594Z" fill="black"/>
</svg>
