<svg width="24" height="24" viewBox="0 0 24 24" fill="none" xmlns="http://www.w3.org/2000/svg">
<path d="M14.8334 10.2333L11.0084 6.40834C10.8523 6.25313 10.6411 6.16602 10.4209 6.16602C10.2008 6.16602 9.98955 6.25313 9.83341 6.40834C9.75531 6.48581 9.69331 6.57798 9.651 6.67953C9.6087 6.78108 9.58691 6.89 9.58691 7.00001C9.58691 7.11002 9.6087 7.21894 9.651 7.32049C9.69331 7.42204 9.75531 7.51421 9.83341 7.59168L13.6667 11.4083C13.7449 11.4858 13.8068 11.578 13.8492 11.6795C13.8915 11.7811 13.9132 11.89 13.9132 12C13.9132 12.11 13.8915 12.2189 13.8492 12.3205C13.8068 12.422 13.7449 12.5142 13.6667 12.5917L9.83341 16.4083C9.67649 16.5642 9.5879 16.7759 9.58712 16.9971C9.58633 17.2182 9.67343 17.4306 9.82925 17.5875C9.98506 17.7444 10.1968 17.833 10.418 17.8338C10.6391 17.8346 10.8515 17.7475 11.0084 17.5917L14.8334 13.7667C15.3016 13.2979 15.5645 12.6625 15.5645 12C15.5645 11.3375 15.3016 10.7021 14.8334 10.2333Z" fill="black"/>
</svg>
