<svg width="920" height="920" viewBox="0 0 920 920" fill="none" xmlns="http://www.w3.org/2000/svg">
<path d="M757.76 193.36C798.41 232.46 829.219 276.302 849.334 323.669C871.814 376.611 880.979 434.234 876.572 494.944C871.909 537.098 858.791 579.404 837.576 620.697C817.374 660.021 790.342 697.51 757.232 732.12C691.975 800.332 607.984 852.199 520.726 878.17C480.103 888.573 417.56 876.901 376.167 869.175L375.341 869.021C321.007 858.846 269.364 837.511 225.995 807.327C174.175 771.26 135.625 724.007 111.409 666.88C103.562 644.22 99.1121 619.711 94.8084 596.011C89.5631 567.116 84.1381 537.238 72.5062 510.721C30.5086 410.024 34.6949 305.562 84.3016 216.588C136.702 122.606 234.154 56.4906 351.673 35.179C376.67 32.8832 407.118 34.3804 439.739 39.5091C474.436 44.9647 510.264 54.1557 546.227 66.8267C603.809 87.1146 687.249 125.536 757.76 193.36Z" fill="white"/>
<path d="M437.363 450.778C441.202 461.91 445.152 465.904 447.643 465.883C449.953 465.861 452.737 462.337 454.263 457.5C456.074 451.75 455.58 445.958 453.139 444.311C450.603 442.597 444.963 444.74 438.027 450.044L437.363 450.778ZM456.065 467.412C453.674 470.349 450.748 472.019 447.662 472.047C441.027 472.107 435.368 465.033 430.839 451.022C430.503 449.986 430.758 448.845 431.488 448.033L433.544 445.754C433.67 445.615 433.809 445.487 433.958 445.371C443.825 437.763 451.48 435.692 456.706 439.221C462.325 443.013 462.534 452.035 460.246 459.292C459.217 462.555 457.777 465.308 456.065 467.412Z" fill="#62D3AE"/>
<path d="M406.487 423.059C397.921 433.578 394.198 445.997 396.368 457.935C396.369 457.942 396.37 457.948 396.371 457.954C399.782 477.436 407.476 491.706 419.238 500.364C431.822 509.627 445.628 509.932 454.996 508.557C480.617 504.797 505.986 483.034 502.916 456.63C499.097 421.503 483.429 408.149 470.956 403.128C454.162 396.366 432.489 400.617 415.745 413.956C412.221 416.763 409.124 419.822 406.487 423.059ZM498.116 491.026C497.047 492.34 495.904 493.626 494.689 494.88C484.592 505.311 470.448 512.517 455.884 514.655C429.515 518.525 398.412 505.947 390.197 459.043C386.955 441.184 395.037 422.542 411.819 409.175C430.323 394.434 454.48 389.82 473.36 397.42C487.398 403.071 505.001 417.808 509.146 455.915C510.574 468.207 506.677 480.514 498.116 491.026Z" fill="#62D3AE"/>
<path d="M434.28 538.526C472.627 543.871 518.458 524.749 528.663 470.079C532.586 449.064 529.178 428.159 519.067 411.214C507.719 392.195 488.642 379.407 463.899 374.229C439.67 370.479 418.129 374.827 401.602 386.803C386.982 397.398 376.539 413.87 372.198 433.187C367.429 454.396 370.412 477.385 380.376 496.258C388.151 510.98 403.813 530.25 434.28 538.526ZM515.142 514.231C511.309 518.938 507.02 523.228 502.319 527.026C483.459 542.259 459.543 548.337 433.157 544.601C433.028 544.582 432.902 544.557 432.777 544.522C376.427 529.332 356.355 475.155 366.079 431.89C370.75 411.107 382.052 393.336 397.906 381.847C415.837 368.852 439.036 364.116 464.995 368.151C465.048 368.159 465.102 368.17 465.156 368.181C491.695 373.714 512.207 387.507 524.476 408.069C535.344 426.283 539.021 448.689 534.826 471.157C531.806 487.338 524.98 502.151 515.142 514.231Z" fill="#62D3AE"/>
<path d="M322.901 342.619C311.831 356.212 303.795 371.771 298.922 389.083C291.484 415.514 291.749 445.197 299.707 477.312C299.749 477.479 299.775 477.647 299.788 477.819C301.631 502.877 307.282 525.332 316.583 544.562C325.189 562.354 336.915 577.41 351.439 589.309C378.006 611.076 414.017 621.902 452.836 619.793C539.476 615.086 627.447 548.007 624.818 443.888C618.552 406.244 604.074 374.104 581.786 348.356C561.914 325.401 535.829 308.001 506.355 298.036C477.191 288.177 445.789 285.736 415.545 290.982C385.131 296.255 358.017 308.954 337.136 327.708C331.94 332.374 327.194 337.349 322.901 342.619ZM593.275 555.771C558.948 597.922 505.809 623.088 453.143 625.949C412.742 628.144 375.192 616.818 347.411 594.056C315.888 568.227 297.268 528.293 293.557 478.558C277.923 415.186 291.903 360.01 332.927 323.167C354.694 303.618 382.899 290.388 414.493 284.91C445.781 279.485 478.262 282.008 508.422 292.204C538.952 302.525 565.974 320.554 586.567 344.344C609.643 371 624.605 404.214 631.039 443.067C631.061 443.204 631.074 443.342 631.077 443.481C632.255 488.079 617.418 526.126 593.275 555.771Z" fill="#62D3AE"/>
<path d="M244.267 457.474C260.659 482.601 266.084 507.592 269.229 528.733C269.244 528.832 269.253 528.932 269.257 529.032C270.405 552.674 275.587 574.997 284.662 595.378C293.443 615.096 305.645 632.537 320.929 647.213C351.69 676.752 393.637 693.294 439.044 693.791C469.946 694.666 503.544 687.5 536.261 673.069C568.249 658.961 598.135 638.523 622.684 613.969C629.112 607.541 635.081 600.937 640.572 594.195C671.699 555.976 687.562 513.222 685.641 471.643C684.194 437.865 673.224 400.339 652.101 356.914C652.076 356.868 652.056 356.82 652.036 356.773C638.475 324.81 620.97 302.055 596.946 285.167C574.945 269.701 549.672 260.37 520.41 249.566L518.78 248.966C499.463 242.621 484.531 236.727 472.529 231.991C446.511 221.721 433.452 216.567 413.808 220.802C413.736 220.818 413.665 220.83 413.592 220.841C383.082 225.255 351.53 238.737 322.347 259.824C293.836 280.43 269.525 307.353 253.897 335.638C242.691 355.92 236.019 376.391 234.064 396.486C231.97 418.014 235.403 438.533 244.267 457.474ZM645.452 598.031C639.826 604.942 633.721 611.696 627.14 618.279C602.044 643.38 571.494 664.271 538.794 678.693C505.217 693.503 470.669 700.855 438.882 699.955C391.918 699.44 348.45 682.281 316.538 651.637C300.679 636.409 288.021 618.323 278.92 597.879C269.557 576.853 264.204 553.852 263.006 529.514C259.947 509.002 254.676 484.799 238.874 460.653C238.796 460.534 238.727 460.41 238.667 460.281C229.266 440.287 225.619 418.637 227.826 395.935C229.861 375.007 236.781 353.738 248.396 332.719C264.459 303.647 289.41 276 318.658 254.865C348.633 233.202 381.118 219.335 412.61 214.757C434.078 210.158 448.588 215.884 474.892 226.267C486.829 230.978 501.685 236.841 520.853 243.134C520.888 243.146 520.925 243.159 520.961 243.172L522.643 243.793C581.098 265.375 627.272 282.415 657.79 354.296C679.261 398.453 690.42 436.74 691.903 471.336C693.892 514.421 677.535 558.634 645.452 598.031Z" fill="#62D3AE"/>
<path d="M202.625 474.666C216.481 501.845 220.702 533.201 224.783 563.527C229.526 598.761 234.429 635.195 254.599 664.572C308.624 745.056 466.398 755.976 547.054 727.89C547.078 727.881 547.098 727.874 547.12 727.866C584.588 715.725 625.596 687.575 660.03 645.298C696.126 600.981 724.999 541.141 735.052 467.88C740.26 426.604 732.917 388.025 712.603 349.976C696.271 319.386 671.182 288.923 635.903 256.84C581.561 205.688 515.395 177.338 444.518 174.819C412.592 173.685 380.87 177.838 350.235 187.162C320.524 196.208 293.18 209.685 268.965 227.218C229.099 256.084 201.245 293.328 188.415 334.924C181.674 356.776 179.29 379.416 181.332 402.216C183.497 426.413 190.661 450.79 202.625 474.666ZM662.258 652.726C632.349 689.455 594.486 718.986 549.083 733.711C506.208 748.631 445.065 752.184 389.508 742.979C324.347 732.185 274.582 705.563 249.381 668.018C228.409 637.473 223.408 600.311 218.57 564.375C214.556 534.545 210.403 503.701 197.011 477.44C197.008 477.433 197.004 477.428 197.001 477.421C173.078 429.677 168.036 379.794 182.419 333.167C195.649 290.278 224.299 251.928 265.271 222.26C290.055 204.315 318.03 190.524 348.417 181.274C379.728 171.742 412.15 167.497 444.782 168.658C517.211 171.232 584.79 200.169 640.212 252.338C675.979 284.864 701.487 315.866 718.155 347.082C739.081 386.277 746.641 426.038 741.267 468.636C732.924 529.43 706.151 598.826 662.258 652.726Z" fill="#62D3AE"/>
<path d="M161.085 237.179C132.665 272.075 113.666 310.1 105.839 347.978C96.5232 393.066 103.796 436.158 126.874 472.597C126.923 472.675 126.969 472.754 127.011 472.836C143.79 505.577 152.681 544.133 161.277 581.42C174.412 638.384 187.992 697.288 229.776 739.046C229.805 739.076 229.834 739.105 229.862 739.136C246.167 756.805 266.844 771.768 291.323 783.605C314.317 794.723 340.113 802.847 367.994 807.752C421.277 817.129 479.356 813.779 527.341 798.56C527.387 798.545 527.433 798.532 527.479 798.519C545.554 793.669 580.714 776.385 621.527 752.285C657.23 731.204 688.052 710.311 694.816 702.605C694.903 702.506 694.996 702.412 695.096 702.325C732.524 669.228 760.519 625.659 778.305 572.828C793.9 526.498 801.292 474.579 800.275 418.5C792.019 331.873 741.604 212.383 548.406 134.821C548.363 134.803 548.32 134.785 548.279 134.766C482.887 105.12 410.619 100.092 339.285 120.226C275.602 138.203 216.031 175.394 171.545 224.951C167.929 228.978 164.439 233.058 161.085 237.179ZM730.348 674.505C720.868 686.144 710.552 696.908 699.412 706.773C691.906 715.151 661.292 735.978 624.729 757.566C604.923 769.262 555.99 797.223 529.164 804.447C480.244 819.947 421.087 823.366 366.855 813.823C338.398 808.815 312.045 800.511 288.529 789.14C263.368 776.973 242.078 761.565 225.254 743.341C182.265 700.346 168.488 640.598 155.165 582.819C146.271 544.241 137.868 507.8 121.474 475.76C97.5966 437.992 90.0674 393.398 99.6981 346.785C108.668 303.372 131.891 259.839 166.858 220.886C212.132 170.452 272.767 132.599 337.592 114.301C410.367 93.76 484.115 98.8891 550.869 129.136C619.182 156.569 675.214 191.764 717.41 233.74C769.893 285.953 799.876 347.947 806.526 418.002C806.533 418.08 806.536 418.157 806.537 418.233C807.581 475.055 800.082 527.708 784.252 574.733C771.425 612.841 753.361 646.245 730.348 674.505Z" fill="#62D3AE"/>
<path d="M750.06 199.883C789.635 237.949 819.63 280.633 839.212 326.747C861.099 378.29 870.021 434.39 865.731 493.495C861.192 534.534 848.419 575.723 827.767 615.923C808.098 654.208 781.78 690.705 749.547 724.401C686.014 790.809 604.242 841.305 519.292 866.588C479.743 876.718 418.854 865.354 378.555 857.833L377.749 857.684C324.853 847.777 274.574 827.007 232.352 797.619C181.903 762.506 144.371 716.502 120.795 660.885C113.156 638.825 108.824 614.965 104.634 591.889C99.5266 563.759 94.2459 534.67 82.9216 508.854C42.0336 410.818 46.1097 309.119 94.4044 222.497C145.418 131 240.295 66.6322 354.708 45.8847C379.044 43.6492 408.688 45.1064 440.446 50.0988C474.226 55.41 509.107 64.3587 544.119 76.695C600.178 96.4469 681.412 133.853 750.06 199.883ZM745.666 128.885C744.52 127.655 742.58 127.558 741.296 128.664C735.743 133.451 733.447 134.389 732.695 134.569C732.184 133.486 731.912 130.419 731.708 128.124C731.005 120.214 729.945 108.29 718.839 102.543C703.52 91.5078 686.222 85.3625 670.951 79.9363C653.299 73.664 638.053 68.2471 628.584 57.1943C627.954 56.4587 627.008 56.0579 626.028 56.1122C617.994 56.5527 613.085 58.0915 608.75 59.4493C601.707 61.6558 596.615 63.252 580.116 58.0741C559.21 51.7892 559.69 45.8539 560.154 40.1148C560.506 35.7661 560.989 29.8122 551.669 26.6633C551.502 26.6066 551.329 26.5644 551.153 26.5364C526.853 22.6828 506.487 19.1013 488.518 15.9411C428.581 5.39922 401.201 0.582739 379.606 13.9389C379.008 14.2785 378.443 14.611 377.897 14.9307C373.008 17.7998 370.776 19.109 362.551 16.1337C358.958 14.7924 356.808 13.5888 355.08 12.6231C351.985 10.8931 349.75 9.64162 344.327 10.3921C344.189 10.4115 344.053 10.4388 343.919 10.4776C324.84 15.7237 312.018 16.845 297.171 18.1446C295.322 18.3066 293.447 18.4701 291.53 18.6445C275.754 18.5838 266.38 27.5474 258.845 34.7548C251.342 41.9311 247.465 45.2451 241.366 42.1973C240.315 41.6719 239.05 41.7749 238.094 42.4615C237.137 43.1484 236.652 44.3027 236.838 45.4503C237.013 46.531 237.053 47.9489 237.097 49.4487C237.14 50.9913 237.188 52.6323 237.382 54.2628C201.945 49.3954 194.419 58.1153 180.001 74.8126C176.379 79.0069 172.275 83.7594 167.118 89.0167C167.055 89.0831 166.995 89.1495 166.936 89.2189C161.647 95.6429 153.657 98.764 145.196 102.067C137.233 105.175 128.994 108.387 122.728 114.636C122.677 114.674 122.642 114.725 122.599 114.769C118.985 118.809 115.568 122.617 112.341 126.203C84.999 156.641 72.5214 170.53 74.1587 181.754C74.6268 184.994 76.3203 187.844 79.2974 190.385C68.8656 198.894 60.3989 204.631 53.4787 209.324C32.7469 223.398 24.1691 229.224 15.911 273.052C15.7343 273.979 15.9992 274.931 16.6266 275.635C17.2622 276.344 18.1887 276.723 19.145 276.669C24.4101 276.377 27.7591 277.632 29.1064 280.404C32.0254 286.419 26.7442 299.121 20.076 306.453C20.0205 306.513 19.9679 306.577 19.9177 306.641C18.3838 308.607 16.3617 309.471 14.0178 310.464C9.58112 312.339 4.06258 314.675 4.0528 325.118C4.05216 325.537 4.13891 325.95 4.30533 326.332C17.1081 355.678 13.0256 375.63 8.29906 398.732C5.88063 410.545 3.38164 422.76 2.98635 437.134C2.98556 437.197 2.98544 437.258 2.9876 437.32C3.64976 456.934 5.27419 464.543 9.42701 467.479C12.6131 469.732 16.334 468.646 19.9322 467.593C22.3683 466.88 25.1243 466.075 28.251 465.973C29.9764 466.142 31.0189 466.638 31.3511 467.45C32.1334 469.357 30.4817 474.213 25.8699 479.468C20.5095 485.575 13.7013 489.32 9.68179 488.369C8.60233 488.114 7.46181 488.443 6.68771 489.231C5.91003 490.024 5.61686 491.152 5.91273 492.205C8.26672 500.587 13.4048 510.232 18.3737 519.559C22.7467 527.769 27.2698 536.258 29.7994 543.7C29.948 544.139 30.1987 544.542 30.5294 544.873C37.5848 551.94 43.7373 554.484 47.8091 556.168C48.9002 556.62 50.2259 557.168 50.7536 557.533C50.3997 559.646 45.1994 566.94 41.365 572.32C41.0935 572.699 40.9139 573.133 40.8356 573.589C39.6905 580.323 41.9912 589.766 44.5483 596.429C47.1583 606.403 55.532 610.987 62.9252 615.034C72.5845 620.322 77.9724 623.819 75.8233 633.802C74.8748 636.06 73.114 637.756 71.0849 639.713C67.8828 642.801 64.2555 646.298 63.3594 652.685C63.3306 652.902 63.3234 653.119 63.3399 653.337C63.9904 661.88 69.5757 669.883 74.9742 677.621C80.2269 685.146 85.6563 692.926 86.6603 701.127C86.6744 701.235 86.694 701.344 86.7189 701.451C88.6177 709.533 94.3981 711.158 98.6191 712.346C101.083 713.039 103.231 713.644 104.658 715.262C107.191 721.87 109.109 728.034 110.967 734C116.216 750.866 120.75 765.434 135.964 776.871C145.494 784.556 153.161 795.204 160.577 805.503C174.784 825.231 189.465 845.619 216.788 842.107C225.284 850.642 236.875 849.763 246.273 849.05C253.146 848.53 259.081 848.079 262.458 850.903C262.486 850.925 262.516 850.948 262.544 850.971C267.3 854.666 268.841 861.106 270.33 867.334C272.214 875.214 274.163 883.36 282.733 885.781L284.792 886.56C329.92 903.654 359.819 914.979 378.649 911.465C382.277 911.319 383.806 907.194 385.564 902.449C386.753 899.242 388.967 893.269 391.107 892.944C391.516 892.88 393.777 892.879 398.473 898.917C403.572 907.715 408.254 912.387 413.642 914.059C418.759 915.649 423.5 914.2 428.52 912.666C432.665 911.399 436.948 910.09 442.141 910.165C454.373 910.772 460.266 913.985 464.572 916.33C471.14 919.909 475.368 921.507 485.868 912.739C493.285 906.554 502.176 908.128 511.591 909.795C515.259 910.445 519.054 911.116 522.738 911.287C522.964 911.298 523.191 911.283 523.416 911.246C567.54 903.792 576.098 894.327 585.157 884.304C589.72 879.256 594.032 874.486 603.517 869.633C610.103 867.933 613.538 869.885 617.172 871.95C623.13 875.336 628.435 877.268 637.854 868.973C647.524 860.425 657.238 854.932 669.348 851.157C669.57 851.089 669.783 850.996 669.984 850.881C684.841 842.365 695.066 837.028 701.832 833.496C716.337 825.925 718.202 824.952 717.321 816.131C717.095 813.867 716.791 810.82 716.967 806.432C720.989 801.223 725.586 800.792 730.869 800.309C735.16 799.916 739.599 799.511 743.308 796.241C747.211 792.798 749.405 786.843 750.201 777.502C750.888 772.335 751.763 769.038 754.359 766.468C756.837 764.024 760.638 764.217 762.551 765.912C773.417 777.208 781.802 781.714 788.935 780.09C792.124 779.364 794.682 777.485 796.817 774.862C800.938 769.803 803.491 761.973 805.989 754.317C808.167 747.636 810.419 740.729 813.48 736.476C813.522 736.417 813.564 736.355 813.602 736.292C821.224 723.929 832.354 712.674 843.117 701.791C849.66 695.176 855.84 688.929 861.224 682.498C861.818 681.816 862.041 680.937 861.909 680.071C861.778 679.205 861.275 678.438 860.531 677.96C854.45 674.064 853.458 666.665 855.11 661.441C855.865 659.054 857.544 656.308 859.886 655.994C863.897 657.627 866.274 658.282 868.499 657.68C871.166 656.959 872.409 654.79 873.983 652.043C874.469 651.199 875.02 650.24 875.687 649.162C875.794 648.994 875.881 648.816 875.952 648.631C901.574 581.306 914.806 536.802 917.591 508.576C920.181 482.339 913.669 472.334 906.774 461.739C902.534 455.224 898.152 448.49 895.708 437.083C895.618 421.656 899.838 417.016 902.644 413.938C904.545 411.851 906.906 409.256 905.124 404.905C904.042 402.263 901.412 398.875 895.359 392.418C905.995 381.691 909.92 368.918 906.422 356.18C906.36 355.956 906.273 355.74 906.161 355.535C880.27 307.898 868.487 276.833 860.692 256.277C849.486 226.726 846.38 218.533 821.111 219.195C817.281 216.686 813.644 208.558 812.858 203.686C813.472 189.156 809.838 177.643 801.753 168.495C794.556 160.349 784.901 154.985 774.679 149.305C764.513 143.656 754.002 137.815 745.666 128.885Z" fill="#62D3AE"/>
</svg>
