<svg width="12" height="9" viewBox="0 0 12 9" fill="none" xmlns="http://www.w3.org/2000/svg">
<path d="M0.676097 3.75892C0.763195 3.67152 0.866686 3.60217 0.980641 3.55486C1.0946 3.50754 1.21677 3.48318 1.34016 3.48318C1.46355 3.48318 1.58572 3.50754 1.69968 3.55486C1.81363 3.60217 1.91712 3.67152 2.00422 3.75892L4.6431 6.3978L10.2298 0.81264C10.4059 0.63652 10.6448 0.537577 10.8939 0.537577C11.143 0.537577 11.3818 0.636519 11.5579 0.81264C11.7341 0.98876 11.833 1.22763 11.833 1.4767C11.833 1.72577 11.7341 1.96464 11.5579 2.14076L5.30794 8.39077C5.22085 8.47817 5.11735 8.54751 5.0034 8.59483C4.88944 8.64215 4.76727 8.6665 4.64388 8.6665C4.52049 8.6665 4.39832 8.64215 4.28436 8.59483C4.17041 8.54751 4.06692 8.47817 3.97982 8.39077L0.676098 5.08704C0.588697 4.99995 0.51935 4.89645 0.472032 4.7825C0.424715 4.66855 0.400357 4.54637 0.400357 4.42298C0.400357 4.29959 0.424715 4.17742 0.472032 4.06346C0.51935 3.94951 0.588697 3.84602 0.676097 3.75892Z" fill="#162843"/>
</svg>
