<svg width="28" height="28" viewBox="0 0 28 28" fill="none" xmlns="http://www.w3.org/2000/svg">
<rect width="28" height="28" rx="14" fill="#E1F8A2"/>
<path d="M21.8312 9.95628L11.8312 19.9563C11.7434 20.0441 11.6242 20.0934 11.5 20.0934C11.3758 20.0934 11.2566 20.0441 11.1687 19.9563L6.79375 15.5813C6.71095 15.4924 6.66587 15.3749 6.66801 15.2535C6.67015 15.132 6.71935 15.0161 6.80523 14.9303C6.89112 14.8444 7.00698 14.7952 7.12842 14.793C7.24986 14.7909 7.36739 14.836 7.45625 14.9188L11.5 18.9617L21.1687 9.29378C21.2576 9.21098 21.3751 9.1659 21.4966 9.16804C21.618 9.17018 21.7339 9.21938 21.8198 9.30526C21.9056 9.39115 21.9548 9.50701 21.957 9.62845C21.9591 9.74989 21.914 9.86742 21.8312 9.95628Z" fill="#465718"/>
</svg>
