<svg width="24" height="24" viewBox="0 0 24 24" fill="none" xmlns="http://www.w3.org/2000/svg">
<path d="M10.2317 17.1017C11.2077 18.0783 12.7906 18.0788 13.7672 17.1028L16.4442 14.4259C16.7529 14.0845 16.7263 13.5575 16.385 13.2488C16.0671 12.9614 15.5831 12.962 15.2659 13.25L12.8275 15.6892L12.8334 2.83336C12.8333 2.37309 12.4602 2 12 2C11.5398 2 11.1667 2.37309 11.1667 2.83332L11.1592 15.6733L8.73418 13.25C8.40856 12.9246 7.88082 12.9248 7.55543 13.2504C7.23004 13.5761 7.23023 14.1038 7.55586 14.4292L10.2317 17.1017Z" fill="white"/>
<path d="M21.1667 15.3333C20.7064 15.3333 20.3334 15.7064 20.3334 16.1666V19.5C20.3334 19.9602 19.9603 20.3333 19.5 20.3333H4.5C4.03977 20.3333 3.66668 19.9602 3.66668 19.5V16.1667C3.66668 15.7064 3.29359 15.3334 2.83336 15.3334C2.37309 15.3333 2 15.7064 2 16.1667V19.5C2 20.8807 3.1193 22 4.5 22H19.5C20.8807 22 22 20.8807 22 19.5V16.1667C22 15.7064 21.6269 15.3333 21.1667 15.3333Z" fill="white"/>
</svg>
