<svg width="397" height="320" viewBox="0 0 397 320" fill="none" xmlns="http://www.w3.org/2000/svg">
<path d="M235.835 134.861C238.524 135.629 241.212 136.397 243.9 137.165C250.126 138.945 256.353 140.725 262.581 142.497C278.573 147.049 294.68 150.732 311.151 152.26C316.596 152.765 319.511 151.013 320.14 144.562C320.895 136.822 321.78 129.097 322.717 121.382C323.418 115.61 321.954 113.812 316.658 115.197C302.929 118.79 289.077 117.047 275.205 114.629C277.611 114.404 280.018 114.172 282.424 113.94C288.054 113.397 293.684 112.854 299.319 112.389C303.431 112.05 307.409 110.969 311.386 109.888C313.275 109.375 315.164 108.862 317.068 108.428C321.283 107.468 322.104 104.96 321.59 100.466C321.422 98.9884 321.248 97.5104 321.075 96.0322C319.968 86.5956 318.86 77.1485 318.956 67.5822C319.257 37.5155 332.454 17.2043 357.222 8.61374C358.015 8.33843 358.8 8.03142 359.999 7.56209L360.012 7.55739L360.127 7.51203L360.185 7.48944L361.254 7.07254C361.475 6.98642 361.708 6.89578 361.955 6.80042L362.6 6.55138C349.589 -0.143828 337.587 -0.0258297 325.48 1.9006C299.879 5.97488 278.88 20.4283 260.51 40.8891C247.268 55.6374 233.82 70.1824 216.412 78.3211C196.158 87.79 175.505 89.4901 154.422 82.409C151.834 81.5396 149.85 80.3098 148.388 77.5798C146.584 74.2119 143.651 72.4112 140.339 71.8275C135.003 70.8865 132.485 74.3124 133.829 80.3913C134.886 85.1732 126.445 95.3116 122.425 93.6014C122.004 93.4225 121.58 93.2296 121.155 93.0364C117.912 91.5618 114.639 90.0737 112.813 94.7453C110.53 100.585 113.109 106.201 117.438 109.373C121.679 112.48 123.364 116.584 124.038 121.827C125.85 135.908 120.282 145.753 107.801 151.629C103.104 153.84 98.2367 155.261 93.3255 156.695C90.2024 157.607 87.0615 158.524 83.9357 159.653C125.494 161.5 161.606 181.756 197.722 202.013C199.777 203.166 201.832 204.318 203.889 205.468C211.822 209.902 219.956 213.834 228.384 216.9C257.507 227.496 283.281 218.033 301.925 189.787C306.452 182.928 310.151 175.469 313.592 167.815C316.208 161.997 316.003 159.159 309.261 158.506C283.62 156.023 259.381 146.965 235.835 134.861Z" fill="#FCF59D"/>
<path d="M0.244138 210.382C3.53429 210.964 5.65608 209.54 7.62238 208.22L7.63253 208.213C8.27476 207.782 8.9002 207.362 9.54472 207.028C30.2284 196.296 51.7931 195.75 73.6664 199.267C106.481 204.542 137.811 216.026 168.447 230.248C197.715 243.836 228.053 251.975 259.506 254.832C274.774 256.218 289.828 259.043 304.569 264.215C341.488 277.166 362.537 306.496 370.735 349.307C374.288 367.862 374.813 386.543 371.76 405.299C371.545 406.619 371.338 407.952 371.264 409.288C371.254 409.474 371.238 409.665 371.218 409.859C371.202 410.019 371.183 410.181 371.162 410.346C371.121 410.671 371.072 411.004 371.023 411.338C370.639 413.968 370.232 416.751 373.11 417.598C376.503 418.597 377.054 415.257 377.507 412.503C377.585 412.032 377.66 411.577 377.746 411.164C380.861 396.191 382.494 381.033 381.159 365.604C377.891 327.829 365.181 295.807 338.927 271.979C338.571 271.656 338.194 271.348 337.814 271.037C336.335 269.827 334.804 268.575 334.231 266.218C335.779 264.917 337.591 264.344 339.521 263.733C342.002 262.948 344.678 262.101 347.241 259.568L339.643 257.47C336.628 256.638 333.809 255.859 330.991 255.077C319.8 251.972 308.569 249.058 297.338 246.144C274.883 240.319 252.427 234.493 230.294 227.135C212.362 221.173 195.63 211.838 178.918 202.515C177.273 201.597 175.628 200.68 173.982 199.765C172.926 199.179 171.869 198.593 170.812 198.01C142.764 182.541 113.809 171.055 82.5561 168.536C59.4502 166.674 37.1208 169.125 17.3178 184.847C9.42833 191.111 3.18089 199.015 0.244138 210.382Z" fill="#FCF59D"/>
<path d="M360.755 277.977C360.91 277.936 361.064 277.894 361.216 277.851C361.43 277.825 361.643 277.792 361.856 277.759L361.863 277.757C362.341 277.684 362.817 277.61 363.293 277.618C385.105 277.964 405.526 283.585 423.231 299.13L423.448 299.32C427.23 302.641 431.057 306 433.777 310.672C433.849 310.796 433.923 310.919 433.997 311.044C434.733 312.275 435.502 313.562 434.477 314.98C433.205 316.738 431.582 316.352 430.124 315.161C428.612 313.927 427.123 312.646 425.697 311.283C414.637 300.706 402.109 293.525 388.312 289.058C379.564 286.225 370.651 284.857 361.653 283.89L361.65 283.89C360.06 283.719 358.162 283.515 357.961 281.097C357.768 278.781 359.302 278.368 360.755 277.977Z" fill="#FCF59D"/>
<path d="M340.244 187.382C340.71 189.804 342.136 190.358 343.448 190.867C343.639 190.941 343.827 191.014 344.009 191.091C361.545 198.552 379.098 205.957 396.662 213.326L396.892 213.423C398.767 214.216 400.994 215.157 401.999 212.132C403.118 208.765 400.892 207.316 398.594 206.365L392.174 203.708C376.94 197.402 361.706 191.096 346.433 184.919C343.966 183.92 340.869 182.79 340.244 187.382Z" fill="#FCF59D"/>
<path d="M107.903 237.325C108.003 237.209 108.101 237.095 108.196 236.984L108.309 236.85L108.378 236.768L108.461 236.668C108.537 236.576 108.61 236.486 108.679 236.398C110.446 235.934 111.471 236.379 112.144 237.636C113.241 239.685 112.309 241.335 111.417 242.914C111.35 243.033 111.283 243.151 111.217 243.269L111.17 243.355C111.142 243.406 111.114 243.457 111.086 243.508C102.599 259.167 94.1101 274.825 85.5249 290.411C85.3232 290.777 85.1229 291.183 84.9172 291.601L84.9153 291.604C83.7142 294.037 82.3235 296.854 79.37 294.472C76.6112 292.247 78.2483 289.686 79.615 287.549C79.91 287.087 80.1925 286.646 80.4153 286.231C88.3201 271.533 96.4229 256.978 104.525 242.424L105.792 240.149C106.387 239.08 107.18 238.161 107.875 237.357L107.903 237.325Z" fill="#FCF59D"/>
<path d="M169.494 263.56C167.358 264.556 166.728 266.588 166.186 268.654C165.348 271.847 164.509 275.04 163.67 278.232C160.138 291.67 156.605 305.109 153.189 318.587C153.116 318.873 153.029 319.178 152.939 319.493C152.312 321.685 151.53 324.415 154.404 325.408C157.769 326.571 158.702 323.212 159.412 320.345C163.548 303.636 167.655 286.918 171.687 270.175L171.762 269.863C172.408 267.208 173.136 264.211 169.494 263.56Z" fill="#FCF59D"/>
<path d="M139.497 290.154C138.188 290.047 137.404 289.206 137.029 287.247C137.158 286.772 137.29 286.261 137.428 285.726L137.437 285.69C137.77 284.4 138.139 282.971 138.577 281.571C141.728 271.487 144.896 261.409 148.109 251.352C148.829 249.095 149.611 246.832 150.635 244.749C151.457 243.076 152.812 241.715 154.641 242.851C156.093 243.751 156.124 245.586 155.652 247.108C151.423 260.742 147.122 274.347 142.819 287.95C142.265 289.702 141.014 290.277 139.497 290.154Z" fill="#FCF59D"/>
<path d="M241.012 338.628L241.275 339.777C242.337 344.42 243.398 349.063 244.51 353.69C245.038 355.893 246.056 357.774 248.437 356.9C250.459 356.157 250.408 354.103 250.007 352.25C247.195 339.277 244.365 326.309 241.403 313.382C240.949 311.404 240.053 309.167 237.548 309.948C234.703 310.835 235.011 313.314 235.557 315.752C236.55 320.185 237.575 324.609 238.599 329.032C239.011 330.811 239.424 332.59 239.833 334.369L240.022 334.31C240.354 335.749 240.683 337.189 241.012 338.628Z" fill="#FCF59D"/>
<path d="M324.605 215.756C324.365 215.541 324.138 215.336 323.924 215.157C323.472 213.378 323.725 212.138 324.702 211.207C326.165 209.813 327.629 210.216 329.176 211.179C331.336 212.523 333.501 213.858 335.667 215.19L338.157 216.721L338.191 216.742C342.906 219.64 347.621 222.537 352.303 225.506L352.584 225.683C354.245 226.723 356.207 227.951 354.603 230.998C352.925 234.186 351.001 233.24 348.773 231.763C344.232 228.75 339.661 225.799 335.088 222.849C332.215 220.994 329.342 219.14 326.476 217.27C325.793 216.824 325.166 216.261 324.607 215.758L324.605 215.756Z" fill="#FCF59D"/>
<path d="M209.823 309.486L209.83 309.521C210.374 312.381 210.758 314.401 213.144 314.067C215.576 313.727 215.802 311.465 215.741 309.214L215.586 303.403C215.353 294.633 215.121 285.862 214.774 277.099C214.681 274.748 214.261 271.865 211.402 272.099C209.003 272.296 208.735 274.856 208.783 277.002C208.966 285.209 209.214 293.413 209.448 301.123L209.448 301.133C209.526 303.724 209.603 306.258 209.675 308.718C209.727 308.98 209.776 309.236 209.823 309.486Z" fill="#FCF59D"/>
<path d="M186.667 274.154C186.91 272.622 187.266 270.971 189.162 270.248C191.648 270.365 192.255 272.409 191.919 275.074C190.656 285.087 189.371 295.097 187.993 305.089C187.654 307.549 186.824 310.044 184.018 309.248C181.698 308.589 181.737 306.267 182.073 304.051L182.479 301.374L182.493 301.28C183.865 292.234 185.236 283.188 186.667 274.154Z" fill="#FCF59D"/>
<path d="M177.478 334.207C175.085 335.444 173.234 337.152 174.235 340.354C175.029 342.896 176.853 343.976 179.251 342.992C181.524 342.06 182.656 340.191 182.074 337.448C181.488 334.69 179.806 333.605 177.478 334.207Z" fill="#FCF59D"/>
<path d="M124.992 264.46L124.902 264.515C122.317 265.554 121.08 264.331 120.534 261.868C119.763 258.389 121.924 256.964 124.041 255.924C126.241 254.845 127.738 256.709 128.232 258.777C129.006 262.023 126.789 263.369 124.992 264.46Z" fill="#FCF59D"/>
</svg>
