<svg width="230" height="217" viewBox="0 0 230 217" fill="none" xmlns="http://www.w3.org/2000/svg">
<path d="M142.062 80.7827C143.672 81.2426 145.283 81.703 146.893 82.1633C150.623 83.2295 154.353 84.2958 158.084 85.3576C167.665 88.0845 177.314 90.2907 187.182 91.2061C190.443 91.5088 192.19 90.459 192.567 86.5945C193.019 81.9576 193.549 77.3295 194.111 72.7079C194.531 69.2498 193.654 68.1728 190.481 69.0028C182.256 71.1548 173.958 70.1106 165.647 68.6626C167.089 68.5273 168.53 68.3883 169.972 68.2494C173.345 67.9241 176.718 67.5989 180.093 67.3204C182.557 67.1171 184.94 66.4697 187.323 65.8223C188.454 65.5149 189.586 65.2074 190.726 64.9475C193.252 64.3722 193.743 62.8697 193.436 60.1778C193.335 59.2924 193.231 58.4069 193.127 57.5213C192.464 51.8682 191.8 46.2086 191.857 40.4776C192.038 22.4654 199.944 10.2974 214.782 5.15105C215.257 4.98612 215.727 4.8022 216.445 4.52103L216.453 4.51821L216.522 4.49104L216.557 4.47751L217.197 4.22775C217.33 4.17616 217.469 4.12186 217.617 4.06473L218.003 3.91554C210.209 -0.0954013 203.019 -0.0247114 195.766 1.12936C180.429 3.57017 167.849 12.2288 156.844 24.4864C148.911 33.3218 140.855 42.0354 130.426 46.9111C118.292 52.5837 105.92 53.6022 93.2888 49.3601C91.7384 48.8392 90.5503 48.1024 89.6742 46.467C88.5936 44.4494 86.8365 43.3706 84.8524 43.0209C81.6558 42.4572 80.147 44.5095 80.9522 48.1513C81.5855 51.016 76.5289 57.0897 74.1202 56.0651C73.8683 55.958 73.6141 55.8424 73.3595 55.7266C71.4167 54.8433 69.4561 53.9518 68.3621 56.7504C66.9944 60.2488 68.5391 63.6131 71.1329 65.5136C73.6733 67.3751 74.6829 69.8336 75.087 72.9744C76.1723 81.4099 72.8368 87.3079 65.3594 90.8281C62.5457 92.1526 59.6298 93.004 56.6876 93.8631C54.8166 94.4095 52.935 94.9588 51.0624 95.6349C75.9592 96.7417 97.5931 108.876 119.229 121.012C120.46 121.702 121.691 122.393 122.923 123.082C127.676 125.738 132.549 128.094 137.598 129.931C155.045 136.278 170.486 130.609 181.654 113.688C184.366 109.579 186.583 105.11 188.644 100.525C190.211 97.0393 190.088 95.339 186.05 94.9478C170.689 93.4605 156.168 88.0338 142.062 80.7827Z" fill="#D2B20F"/>
<path d="M0.924748 126.026C2.8958 126.374 4.16691 125.521 5.34487 124.73L5.35095 124.726C5.73569 124.468 6.11038 124.216 6.4965 124.016C18.8876 117.587 31.8065 117.26 44.9103 119.367C64.5686 122.527 83.338 129.407 101.691 137.927C119.225 146.067 137.4 150.943 156.242 152.655C165.389 153.485 174.407 155.178 183.239 158.276C205.356 166.034 217.966 183.606 222.877 209.252C225.006 220.368 225.32 231.56 223.491 242.796C223.363 243.586 223.239 244.385 223.194 245.186C223.188 245.297 223.178 245.411 223.167 245.528C223.157 245.623 223.145 245.721 223.133 245.819C223.108 246.014 223.079 246.213 223.05 246.414C222.819 247.989 222.576 249.656 224.3 250.164C226.333 250.763 226.662 248.761 226.934 247.112C226.981 246.829 227.026 246.557 227.077 246.31C228.944 237.34 229.921 228.258 229.122 219.015C227.164 196.385 219.55 177.202 203.822 162.927C203.608 162.733 203.383 162.549 203.155 162.362C202.269 161.638 201.352 160.888 201.008 159.476C201.936 158.696 203.021 158.353 204.177 157.987C205.663 157.517 207.267 157.009 208.802 155.492L204.25 154.235C202.444 153.736 200.756 153.27 199.067 152.801C192.363 150.941 185.635 149.195 178.907 147.45C165.454 143.96 152.002 140.47 138.742 136.062C128 132.49 117.976 126.898 107.964 121.313C106.978 120.763 105.993 120.213 105.007 119.665C104.374 119.314 103.741 118.963 103.108 118.614C86.3051 109.347 68.959 102.466 50.2359 100.957C36.3937 99.8413 23.0167 101.309 11.1532 110.728C6.42677 114.481 2.68408 119.216 0.924748 126.026Z" fill="#D2B20F"/>
<path d="M216.898 166.52C216.991 166.495 217.084 166.471 217.174 166.444C217.302 166.429 217.43 166.409 217.558 166.389L217.562 166.389C217.848 166.345 218.134 166.301 218.419 166.305C231.486 166.512 243.719 169.88 254.326 179.192L254.456 179.307C256.722 181.296 259.015 183.308 260.644 186.107C260.687 186.181 260.731 186.255 260.776 186.33C261.217 187.067 261.677 187.838 261.063 188.687C260.301 189.741 259.329 189.51 258.455 188.796C257.55 188.057 256.657 187.29 255.803 186.473C249.178 180.137 241.672 175.835 233.407 173.158C228.167 171.461 222.827 170.642 217.436 170.063L217.434 170.062C216.482 169.96 215.345 169.838 215.225 168.389C215.109 167.002 216.028 166.755 216.898 166.52Z" fill="#D2B20F"/>
<path d="M204.61 112.247C204.89 113.698 205.744 114.03 206.53 114.335C206.644 114.379 206.757 114.423 206.866 114.469C217.371 118.938 227.887 123.375 238.409 127.79L238.547 127.848C239.67 128.322 241.004 128.886 241.607 127.074C242.277 125.057 240.943 124.189 239.567 123.619L235.721 122.027C226.594 118.25 217.468 114.472 208.318 110.771C206.84 110.173 204.985 109.496 204.61 112.247Z" fill="#D2B20F"/>
<path d="M65.4205 142.166C65.4805 142.097 65.5392 142.029 65.5959 141.962L65.6637 141.882L65.7053 141.833L65.7549 141.773C65.8002 141.718 65.8439 141.664 65.8854 141.611C66.9438 141.333 67.5578 141.6 67.9611 142.353C68.6186 143.58 68.0601 144.569 67.5258 145.515C67.4856 145.586 67.4456 145.657 67.4062 145.727L67.3776 145.779C67.3608 145.81 67.3441 145.84 67.3275 145.871C62.2431 155.252 57.1576 164.632 52.0144 173.969C51.8936 174.188 51.7736 174.432 51.6504 174.682L51.6493 174.684C50.9297 176.141 50.0965 177.829 48.3272 176.402C46.6744 175.069 47.6552 173.535 48.4739 172.254C48.6507 171.978 48.8199 171.713 48.9534 171.465C53.689 162.66 58.5431 153.94 63.397 145.221L64.1562 143.858C64.5123 143.218 64.9877 142.667 65.4039 142.186L65.4205 142.166Z" fill="#D2B20F"/>
<path d="M102.318 157.883C101.039 158.48 100.661 159.698 100.337 160.935C99.8348 162.848 99.332 164.76 98.8293 166.673C96.7132 174.724 94.5971 182.774 92.5504 190.849C92.5069 191.02 92.4547 191.203 92.4006 191.391C92.0247 192.705 91.5564 194.34 93.278 194.935C95.2939 195.632 95.853 193.619 96.2782 191.902C98.7562 181.892 101.216 171.877 103.632 161.846L103.677 161.659C104.064 160.069 104.5 158.274 102.318 157.883Z" fill="#D2B20F"/>
<path d="M84.3478 173.815C83.5637 173.751 83.0942 173.247 82.8694 172.074C82.9463 171.789 83.0255 171.483 83.1082 171.162L83.1137 171.141C83.3132 170.368 83.5342 169.512 83.7964 168.673C85.6846 162.632 87.582 156.595 89.5069 150.57C89.9385 149.218 90.4069 147.862 91.0201 146.614C91.5126 145.612 92.3243 144.797 93.4205 145.477C94.2898 146.016 94.3086 147.116 94.0259 148.027C91.4922 156.195 88.9158 164.346 86.338 172.495C86.0061 173.544 85.2567 173.889 84.3478 173.815Z" fill="#D2B20F"/>
<path d="M145.163 202.855L145.321 203.543C145.957 206.325 146.593 209.106 147.258 211.878C147.575 213.198 148.185 214.325 149.611 213.801C150.823 213.356 150.792 212.125 150.552 211.015C148.867 203.244 147.172 195.475 145.397 187.731C145.125 186.546 144.588 185.205 143.088 185.673C141.383 186.205 141.568 187.69 141.895 189.15C142.49 191.806 143.104 194.456 143.718 197.106C143.965 198.172 144.211 199.237 144.457 200.303L144.57 200.268C144.769 201.13 144.966 201.992 145.163 202.855Z" fill="#D2B20F"/>
<path d="M195.242 129.245C195.098 129.116 194.962 128.994 194.833 128.886C194.563 127.821 194.714 127.078 195.3 126.52C196.176 125.685 197.053 125.926 197.98 126.503C199.274 127.308 200.571 128.108 201.868 128.906L203.36 129.823L203.381 129.836C206.206 131.572 209.03 133.308 211.835 135.086L212.003 135.192C212.998 135.815 214.173 136.551 213.212 138.376C212.207 140.286 211.055 139.719 209.72 138.834C207 137.029 204.261 135.262 201.522 133.494C199.801 132.383 198.08 131.272 196.363 130.152C195.953 129.885 195.578 129.548 195.243 129.246L195.242 129.245Z" fill="#D2B20F"/>
<path d="M126.479 185.397L126.482 185.417C126.808 187.131 127.039 188.341 128.468 188.141C129.925 187.937 130.06 186.582 130.024 185.233L129.931 181.752C129.791 176.498 129.652 171.244 129.445 165.994C129.389 164.586 129.137 162.859 127.425 162.999C125.987 163.117 125.826 164.65 125.855 165.936C125.965 170.852 126.114 175.768 126.254 180.386L126.254 180.392C126.301 181.944 126.347 183.463 126.39 184.936C126.421 185.093 126.45 185.247 126.479 185.397Z" fill="#D2B20F"/>
<path d="M112.606 164.23C112.752 163.312 112.965 162.323 114.101 161.89C115.59 161.96 115.954 163.184 115.752 164.781C114.996 170.78 114.226 176.776 113.401 182.763C113.197 184.236 112.7 185.731 111.02 185.254C109.629 184.859 109.653 183.468 109.854 182.141L110.097 180.537L110.106 180.481C110.927 175.061 111.749 169.642 112.606 164.23Z" fill="#D2B20F"/>
<path d="M107.101 200.206C105.668 200.947 104.559 201.97 105.158 203.888C105.634 205.411 106.727 206.059 108.164 205.469C109.525 204.911 110.203 203.791 109.855 202.148C109.504 200.495 108.496 199.846 107.101 200.206Z" fill="#D2B20F"/>
<path d="M75.6584 158.422L75.6044 158.455C74.0555 159.078 73.3145 158.345 72.9876 156.87C72.5254 154.786 73.8201 153.932 75.0888 153.309C76.4062 152.662 77.3036 153.779 77.5992 155.018C78.0627 156.963 76.7346 157.769 75.6584 158.422Z" fill="#D2B20F"/>
</svg>
