<svg version="1.2" xmlns="http://www.w3.org/2000/svg" viewBox="0 0 718 1077" width="718" height="1077"><style>.a{fill:#f8d71a}.b{fill:#fcf59d}</style><path class="a" d="m718 1080h-717.5l381.5-1080h336z"/><path fill-rule="evenodd" class="b" d="m735.8 949.1c-1.7 1-3.8 0.9-5.3-0.3-28.4-21.7-55.1-33.6-77.1-39.9q7.5 6.9 12.1 16.1c15 29.6 1.9 66.3 1.3 67.9-0.7 1.8-2.4 3.1-4.4 3.1q0 0-0.1 0c-2-0.1-3.7-1.4-4.3-3.3-8.5-25.9-19.4-44-29.8-56.6-2.3 0.7-4.6 1-7.1 1q-0.5 0-1.1 0c3.3 27.7 9.3 82.7 9.4 107 50.1 13.5 85.9 44.4 88.7 81.3 0.1 1.5-0.5 3-1.7 3.9-1.2 1-2.8 1.4-4.2 0.9-3.7-1-6.3-2.9-8.7-4.7-3.5-2.6-7.2-5.3-14.3-5.3-7.2 0-10.8 2.7-14.4 5.3-3.6 2.7-7.3 5.5-14.7 5.5-7.4 0-11.1-2.8-14.7-5.5-3.6-2.6-7.2-5.3-14.4-5.3-7.1 0-10.8 2.7-14.3 5.3-3.6 2.7-7.4 5.5-14.7 5.5-7.4 0-11.2-2.8-14.8-5.5-3.5-2.6-7.2-5.3-14.3-5.3-7.2 0-10.8 2.7-14.3 5.3-3.6 2.7-7.4 5.5-14.8 5.5-7.4 0-11.1-2.8-14.7-5.5-3.6-2.6-7.2-5.3-14.3-5.3-7.2 0-10.8 2.7-14.4 5.3-3.6 2.7-7.3 5.5-14.7 5.5-7.4 0-11.1-2.8-14.8-5.5-3.5-2.6-7.1-5.3-14.3-5.3-7.1 0-10.8 2.7-14.3 5.3-2.5 1.9-5 3.8-8.8 4.8-1.5 0.4-3 0-4.2-0.9-1.2-1-1.8-2.5-1.7-4 2.3-31.3 28.5-58.3 67-74-6.1-20.7-13.2-52.5-17.2-71.4q-2.1 0.5-4.2 0.6c-4.2 12.4-7.2 29.1-6.4 50.8 0 2-1.2 3.8-3 4.6q-0.9 0.3-1.7 0.3c-1.4 0-2.7-0.6-3.6-1.7-0.9-1-21.6-25.7-18.4-53.2q0.8-6.8 3.4-13c-14.4 11-30.4 27.1-45.1 50.4-1 1.6-2.9 2.4-4.8 2.1-1.9-0.4-3.4-1.9-3.7-3.8-0.2-0.8-3.3-19.7 2.3-40.4 2.8-10.4 8.2-22.4 18.3-32.3-11 5.2-17.7 10.7-17.8 10.8-1.6 1.3-3.8 1.4-5.5 0.4-1.7-1.1-2.5-3.1-2.1-5 0.3-1.2 6.5-28.6 37.5-41.8q0.1 0 0.2-0.1c6.2-2.4 12.7-3.4 19.4-3.1-0.6-10.6 12.6-16.8 20.8-19.6 8-3.2 22-7.1 28.4 1.4q1.5-1.3 3-2.6c3.2-2.9 6.7-5.7 10.5-8.2q8-5.3 16.9-8.3c-18.5 0.6-31.5 5.1-31.7 5.2-1.9 0.6-4 0-5.2-1.6-1.2-1.5-1.3-3.7-0.3-5.4 0.8-1.2 19.2-29.5 59.7-31.5q0.1 0 0.2 0c8.3-0.1 16.5 1.6 24.3 5.1q0-0.2 0.1-0.4c3-12.5 20.8-13.9 31.2-13.7 10.3-0.2 28.1 1.2 31.2 13.7q0 0.2 0.1 0.5c7.5-3.4 15.3-5.2 23.4-5.2q0.4 0 0.8 0 0.1 0 0.2 0c40.5 2 58.9 30.3 59.7 31.5 1.1 1.7 1 3.9-0.3 5.5-1.2 1.5-3.3 2.1-5.2 1.5-0.1-0.1-13.2-4.6-31.7-5.2q8.9 3 16.9 8.3c34 22.3 42.4 65.8 42.7 67.7 0.4 1.9-0.5 3.8-2.1 4.8zm-74.2 26.3c2.3-12.4 3.4-30.8-4.4-46.2q-4.4-8.6-11.9-14.8 0 0.4-0.1 0.8c-0.6 6.4-3.6 12.1-8.5 16.2 8.7 10.9 17.4 25.1 24.9 44zm-41.5 66.5c-0.4-21.8-5.4-69.9-9.8-107.3-4.5-2.3-8.2-5.9-10.6-10.3q-1.3 2.3-3.1 4.2-1.2 1.4-2.6 2.6-0.4 0.3-0.8 0.6-1.6 1.2-3.3 2.1-0.2 1.9-0.4 3.8-0.3 2.3-0.6 4.7c-3.9 33.4-7.9 72.9-8.8 94.7q-0.1 2.5-0.1 4.6-0.1 2.6 0 4.7c0 2.6 0.2 4.6 0.4 5.8 1.7 7.3 12.9 8.3 19.5 8.3 6.7 0 18.1-1 19.8-8.3q0.1-0.3 0.1-0.7 0.3-1.8 0.3-4.7 0.1-2.2 0-4.8zm-134.1-66.4c5.1 23.9 12 54 17.4 72.6q0.6 2.4 1.3 4.5 0.7 2.4 1.4 4.4c1.3 3.9 2.4 6.5 3.3 7.7 3.5 4.9 14 2.8 18.4 1.7q0.6-0.2 1.3-0.2l3.3-1.2q0.5-0.5 1.1-0.8c4-2 13.3-7.3 12.8-13.3-0.1-0.7-0.3-1.7-0.7-3q-0.6-1.9-1.7-4.5-0.8-2-1.9-4.5c-7.6-17.1-23.7-47.5-36.6-70.9q-1.2 0.1-2.5 0.1c-2.8 0-5.6-0.6-8.3-1.7q-1.1-0.5-2.1-1c-1.1 3.9-3.4 7.4-6.5 10.1zm33.5-96.3q-4.9 2.2-9.4 5.2c-3.5 2.3-6.7 4.8-9.6 7.5-13.8 13-21.6 30-25.5 41.5 16.8-11.7 32.8-20 47.7-26.1 6.2-2.5 12.2-4.6 17.9-6.3q5.6-1.8 10.9-3.1 4.7-1.1 9.1-2c3.7-4.1 8.8-6.9 14.4-7.7-0.7-2.8-1-5.7-0.7-8.7q0.1-0.6 0.2-1.1 0.1-0.7 0.2-1.4l-2.8-1q-3.1-0.7-6.2-1.2-15.6-2.7-29.1-0.6-9 1.5-17.1 5zm66.4-5.3q-0.5 0.8-0.9 1.6-0.4 0.8-0.6 1.6-0.2 0.5-0.4 1.1-0.2 0.9-0.3 1.8 0 0.2-0.1 0.4-0.1 1.5 0 2.9 0.1 0.8 0.3 1.6 0.4 2.1 1.4 4 1.2 2.2 3 3.9c1.2 1.1 2.5 2 4 2.7q0.2 0.1 0.5 0.2 0 0 0.1 0 1.9 0.8 4.1 1.1 0 0 0 0 0.2 0 0.4 0 0.5 0 1.1 0 0.8 0 1.5 0 0.1 0 0.1 0 0.6-0.1 1.2-0.2 0.9-0.2 1.8-0.5 0.3-0.1 0.5-0.2 1.3-0.5 2.6-1.2 0.5-0.3 1-0.7 0.4-0.3 0.7-0.5 1.4-1.2 2.4-2.5 0.7-0.9 1.3-1.9 0.9-1.7 1.3-3.6 0.3-1 0.4-2.1 0.1-1.2 0.1-2.4 0-0.1 0-0.2-0.1-0.5-0.1-1-0.3-1.7-0.9-3.4-0.3-0.6-0.5-1.1-0.1-0.2-0.2-0.4-0.7-1.3-1.7-2.5 0-0.1-0.1-0.1-0.5-0.6-1.1-1.2-1.7-1.7-3.9-2.7-2.2-1.1-4.8-1.4 0 0-0.1 0 0 0 0 0-0.8-0.1-1.5-0.1-2.1 0-4 0.6-2.4 0.6-4.4 2-0.5 0.4-1.1 0.8-0.6 0.6-1.2 1.2-0.4 0.4-0.8 0.8-0.6 0.8-1.1 1.6zm-39.1 35c-12.4 3.5-26.1 8.8-40.8 16.5 2.8 0.5 5.6 1.5 8 3 6-1 12.6-1.7 19.9-1.9q0.3-0.8 0.7-1.5 4.7-9.2 12.2-16.1zm33 31.2q-5-1.1-9.7-1.8c-5 6.4-10.2 14.2-15.1 23.6 7.5 16.4 7.7 33.2 7.7 34.2 0 2-1.3 3.8-3.2 4.4-1.9 0.7-3.9 0.1-5.2-1.5q-5.2-6.5-10.2-11.9-1 2.8-1.9 5.6c-0.7 1.9-2.4 3.2-4.4 3.3-2 0-3.8-1.2-4.5-3.1-0.2-0.7-3.1-8.7-4.7-20-4.6-3.5-9-6.5-13.1-8.9q-0.6 0.4-1.1 0.8c10.3 18.8 29 53.4 37.2 73q9.5-0.9 19.2-0.9c1-25.8 5.9-70.9 9-96.8zm-30.4 33.4q-0.8 2-1.6 4 1.8 1.8 3.7 3.8c-0.5-2.4-1.2-5.1-2.1-7.8zm10.2-46.1c-2.9-3.7-4.7-8.1-5.2-12.7q-5.9 5-9.9 11.7-0.8 1.4-1.6 2.8-0.4 0.9-0.8 1.8-1.1 2.4-1.9 4.7-0.8 2.5-1.5 5-0.6 2.6-1 5.2-0.5 2.9-0.7 5.8c-0.4 5.7-0.2 11.2 0.4 16.2 0.3 2.6 0.6 5 1 7.2q0.1 0.1 0.1 0.3 0-0.1 0.1-0.2 0.9-2.3 1.9-4.6 1.9-4.6 4-8.8 1.2-2.5 2.5-4.9 1.3-2.5 2.5-4.7c3.2-5.7 6.5-10.8 9.9-15.4q1.6-2.3 3.3-4.4 0.4-0.5 0.8-1.1-2-1.6-3.7-3.6-0.1-0.2-0.2-0.3zm-107.3 23.6q0.1-0.1 0.1-0.2c2.1-5 5.9-8.9 10.9-11.2 2.2-8.6 8.2-27.7 21.7-44.6-0.4-0.9-0.7-1.5-0.9-1.8-1.8-2.6-9.1-1.9-17.8 1.5q-0.1 0.1-0.2 0.1c-8.9 3-14.9 7.3-14.5 10.4 0 0.7 0.3 1.9 1.3 3.8 0.8 1.6 0.6 3.5-0.4 4.9-1.1 1.5-2.9 2.2-4.7 1.8-7.5-1.4-14.8-0.9-21.6 1.7-13.3 5.7-21.3 14.4-25.9 21.7 11.2-6.2 28.7-13.3 49.7-13.5 2.5 0 4.5 1.8 4.7 4.2 0.3 2.4-1.4 4.6-3.8 5.1-26.3 4.8-43.1 19.7-49.7 44.3-2.3 8.4-2.9 16.7-3 23.1 18.4-25.6 38-41.5 54.1-51.3zm52.2 7.6q0.5-0.1 1-0.2 1-0.2 2-0.6 1.2-0.5 2.3-1.2 0.3-0.3 0.7-0.5c1.3-1.1 2.3-2.4 3.1-3.8 1.6-3 1.9-6.7 0.5-10.2q-0.4-0.8-0.8-1.6c-1.4-2.4-3.6-4.1-6-5.1q-1-0.4-2.1-0.6-1.1-0.2-2.3-0.2c-1.5 0-3 0.3-4.5 0.9q-0.6 0.2-1.2 0.6c-3.4 1.8-5.6 5.1-6.2 8.8q0 0.2 0 0.3c-0.2 1.5-0.1 3 0.3 4.5q0 0 0 0.1 0 0 0 0.1 0.2 0.7 0.5 1.3 0.3 0.7 0.6 1.3 0.7 1.2 1.5 2.1 0.3 0.3 0.5 0.6c1.1 1.1 2.4 2 3.8 2.6q0.9 0.3 1.9 0.6 2.2 0.5 4.4 0.2zm17.3-1.8q2.8 1.6 5.7 3.6c-0.2-4.9 0.1-10 0.8-15.3q-2-1.1-4.3-2c0.8 4.8 0 9.6-2.2 13.7zm68.6-35.3c1.1-1.5 2-3.2 2.5-5q0.4-1.3 0.6-2.8 0.1-1.6-0.1-3.2 0-0.1 0-0.2-0.3-2.3-1.3-4.4-0.1-0.1-0.1-0.2-0.1-0.2-0.2-0.4c-4.2-1.2-7.8-3.5-10.7-6.5q-0.7-0.7-1.3-1.5-0.6 0-1.2 0c-2.3 0-4.5 0.5-6.5 1.5q-1.6 0.8-3 1.9-1.5 1.3-2.6 2.8-1.3 1.9-2.1 4.2-0.1 0.2-0.1 0.4-0.4 1.3-0.5 2.7-0.1 0.9-0.1 1.8c0.1 3.3 1.2 6.5 3.4 9.1q1.1 1.4 2.6 2.5 2 1.5 4.4 2.3 1.5 0.5 3 0.6 1.5 0.2 3 0 0.6 0 1.2-0.1 0.5-0.1 1.1-0.3 2-0.5 3.9-1.6 0.3-0.2 0.6-0.4 0.6-0.4 1.2-0.9 1.3-1 2.3-2.3zm64.4-77.1c-8.9 0-16.8 2.5-23.6 6.3q-2.9 1.7-5.6 3.6c-2.4 1.7-4.6 3.6-6.7 5.5q-2.1 2-4.1 4.1 0.9 0.8 1.7 1.7 0.4 0.4 0.8 0.9 1 1.3 1.9 2.7l0.9-0.3 5.4-1.8q0.2-0.1 0.4-0.1 0.2-0.1 0.3-0.1 3.3-0.7 6.4-1.3c14.3-5 27.8-6.6 38.8-6.8 10.3-0.2 19.4 0.9 26.4 2.1-8.3-7.2-22.2-15.5-42.4-16.5q-0.3 0-0.6 0zm-77.2 0.6c5.4 3.5 10.5 8 15.3 13.2 2.5-0.6 5.3-0.8 8-0.5q3 0.3 5.7 1.2c5-5.5 10.3-10.2 15.9-13.9q0-1.7-0.3-3.1c-1.2-4.8-11.9-6.7-22-6.5q-0.1 0-0.3 0-0.8 0-1.7 0c-9.5 0-19.1 1.9-20.3 6.5q-0.3 1.4-0.3 3.1zm-48.9 13.8c11 0.2 24.5 1.8 38.8 6.8q3.2 0.6 6.4 1.3 0.2 0 0.3 0.1 0.2 0 0.4 0.1l3.7 1.2q0.4-0.6 0.9-1.2 1.5-2 3.5-3.7 0.2-0.2 0.4-0.3 0.4-0.4 0.8-0.7-1.3-1.3-2.7-2.6c-2.1-1.9-4.3-3.8-6.7-5.5q-2.7-1.9-5.6-3.6c-6.8-3.8-14.7-6.3-23.6-6.3q-0.3 0-0.6 0c-20 1-33.9 9.3-42.3 16.5 6.5-1.2 14.7-2.1 24-2.1q1.1 0 2.3 0zm-46.2 81.6q0.1-0.5 0.3-1.1-0.5 0.4-1 0.8 0.3 0.1 0.7 0.3zm-18.7 38.5c-4.3-1.8-8.1-5-10.4-9.4q-3.2 6.1-4 12.9c-1.5 12.6 3.3 25 8 33.7 0.7-14.8 3.2-27.1 6.4-37.2zm13.8-9q1.2-0.6 2.1-1.4c2-1.7 3.4-3.9 4-6.4q0.2-0.4 0.2-0.9 0.2-1.2 0.2-2.4 0-1.4-0.4-2.7-0.3-0.7-0.6-1.4-0.1-0.3-0.2-0.7-0.2-0.3-0.3-0.7 0-0.1-0.1-0.2-1-1.6-2.4-2.9-0.4-0.3-0.7-0.6-1.2-0.9-2.6-1.5c-1.5-0.7-3.1-1-4.7-1q-0.1 0-0.2 0-1 0-2 0.2-1.2 0.2-2.3 0.7-1.2 0.5-2.1 1.1-0.3 0.2-0.5 0.3-0.4 0.3-0.7 0.6c-2.9 2.5-4.5 6.3-4.2 10.1q0.1 1.8 0.8 3.6c1.2 3 3.5 5.2 6.2 6.5 1.5 0.6 3.1 1 4.7 1q1.8 0.1 3.6-0.4 0.6-0.2 1.2-0.4 0.5-0.2 1-0.5zm190.1 100.2c-11.5-6.9-24.6-12.4-38.8-16.4q0 0.2-0.1 0.5c-2.3 10.1-12.6 15.6-28.9 15.6-21.8 0-27.3-9.8-28.6-15.6-0.4-1.7-0.6-4.5-0.6-8q-8 0.1-15.8 0.7c0.4 1.3 0.6 2.4 0.7 3.3 0.7 8.1-5 15.5-16.3 21.6-0.6 0.6-1.2 1-2 1.3l-6.6 2.5c-0.8 0.3-1.6 0.4-2.3 0.3q-5.8 1.3-10.5 1.3c-7.2 0-12.7-2.3-16-6.9-1.3-1.7-2.8-5.3-4.4-10-6.9 2.9-13.5 6.1-19.6 9.8-21.1 12.7-34.8 29-39.4 46.6 3.9-2.8 9.3-5.9 18.1-5.9 10.3 0 15.8 4.2 19.9 7.2 3.2 2.3 4.9 3.6 9.2 3.6 4.3 0 6-1.3 9.2-3.6 4-3 9.6-7.2 19.9-7.2 10.2 0 15.8 4.2 19.8 7.2 3.2 2.3 4.9 3.6 9.2 3.6 4.3 0 6-1.3 9.2-3.6 4.1-3 9.6-7.2 19.9-7.2 10.2 0 15.8 4.2 19.9 7.2 3.1 2.3 4.9 3.6 9.2 3.6 4.3 0 6-1.3 9.1-3.6 4.1-3 9.7-7.2 19.9-7.2 10.3 0 15.8 4.2 19.9 7.2 3.2 2.3 4.9 3.6 9.2 3.6 4.3 0 6-1.3 9.2-3.6 4-3 9.6-7.2 19.9-7.2 8.7 0 14.1 3 18 5.8-4.6-17.6-18.3-33.8-39.5-46.5zm-47.1-142.4c2 0.1 3.9-0.2 5.7-0.9q2.3-0.8 4.2-2.4 0.1 0 0.1 0c3-2.6 4.9-6.1 5.3-10.1 0.3-2.3 0-4.5-0.8-6.6-0.5-1.6-1.4-3-2.5-4.4-1.1-1.4-2.6-2.6-4.1-3.5q-1.5-0.8-3.2-1.3-1.3-0.4-2.7-0.6-0.8-0.1-1.5-0.1-1.1 0-2.1 0.2-1.5 0.2-3 0.7-1 1.1-2.1 2-2.2 1.8-4.6 3-0.7 0.9-1.3 1.9 0 0.1-0.1 0.2-1.1 2-1.5 4.3 0 0.1 0 0.3-0.1 0.4-0.2 0.9c-0.1 1.6 0 3.2 0.3 4.8q0.1 0.4 0.3 0.9 0.6 2 1.6 3.7c1.4 2.2 3.3 4 5.6 5.2q2.2 1.3 4.9 1.7 0.3 0 0.7 0.1 0.5 0 1 0zm104.5 5.7c-4.8-13.9-15.1-35.9-35.1-49-15.4-10.1-34.1-13.3-55.6-9.6q-3 0.5-6.2 1.2l-5.7 2q0.1 0.9 0.2 1.9 0.2 2.2-0.1 4.4-0.2 2.1-0.7 4.2 0.8 0 1.6 0.1c5.7 0.5 10.9 3.1 14.9 7.1 23.2 4.4 53.6 14.7 86.7 37.7z"/></svg>