<svg width="15" height="21" viewBox="0 0 15 21" fill="none" xmlns="http://www.w3.org/2000/svg">
<path d="M8.33301 0.0516452C7.68579 -0.0172151 7.31356 -0.0172151 6.66634 0.0516452C4.93299 0.236064 3.63708 0.668558 2.5435 1.76214C1.44992 2.85572 0.834772 4.33842 0.833008 5.88498V10.885C0.833008 12.6531 1.53539 14.3488 2.78563 15.599C4.03587 16.8493 5.73156 17.5516 7.49967 17.5516C9.26779 17.5516 10.9635 16.8493 12.2137 15.599C13.464 14.3488 14.1663 12.6531 14.1663 10.885V5.88498C14.1646 4.33842 13.5494 2.85572 12.4558 1.76214C11.3623 0.668558 10.0664 0.236064 8.33301 0.0516452ZM12.4997 10.885C12.4997 12.2111 11.9729 13.4828 11.0352 14.4205C10.0975 15.3582 8.82576 15.885 7.49967 15.885C6.17359 15.885 4.90182 15.3582 3.96414 14.4205C3.02646 13.4828 2.49967 12.2111 2.49967 10.885V5.88498C2.501 4.78032 2.94041 3.72128 3.72152 2.94016C4.50264 2.15905 5.56168 1.71964 6.66634 1.71831H8.33301C9.43767 1.71964 10.4967 2.15905 11.2778 2.94016C12.0589 3.72128 12.4984 4.78032 12.4997 5.88498V10.885Z" fill="#101223"/>
<path d="M7.49935 3.55176C7.27834 3.55176 7.06637 3.63956 6.91009 3.79584C6.75381 3.95212 6.66602 4.16408 6.66602 4.38509V6.05176C6.66602 6.27277 6.75381 6.48473 6.91009 6.64101C7.06637 6.79729 7.27834 6.88509 7.49935 6.88509C7.72036 6.88509 7.93232 6.79729 8.0886 6.64101C8.24488 6.48473 8.33268 6.27277 8.33268 6.05176V4.38509C8.33268 4.16408 8.24488 3.95212 8.0886 3.79584C7.93232 3.63956 7.72036 3.55176 7.49935 3.55176Z" fill="#101223"/>
</svg>
