<svg width="240" height="260" viewBox="0 0 240 260" fill="none" xmlns="http://www.w3.org/2000/svg">
<path d="M81.0747 111.24C82.4264 110.753 83.8164 110.522 85.1809 110.522C90.1584 110.522 94.8412 113.604 96.622 118.549C98.8962 124.846 95.6163 131.822 89.3192 134.096C83.0157 136.371 76.0396 133.097 73.7655 126.794C72.6636 123.738 72.8173 120.439 74.201 117.505C75.5783 114.565 78.019 112.342 81.0747 111.24ZM85.213 142.508C87.4422 142.508 89.71 142.13 91.9265 141.329C102.215 137.62 107.564 126.23 103.854 115.942C100.139 105.647 88.749 100.298 78.461 104.014C73.4771 105.808 69.4926 109.44 67.2377 114.238C64.9892 119.03 64.7394 124.417 66.5331 129.401C69.4478 137.472 77.0837 142.508 85.213 142.508Z" fill="#D2D4DA"/>
<path d="M134.046 87.9284L138.063 94.5842L135.84 134.59C134.879 131.368 134.296 129.651 134.264 129.574C134.251 129.535 134.238 129.497 134.225 129.459C132.496 124.897 130.728 120.516 128.947 116.294C130.331 105.968 132.079 96.5317 134.046 87.9284ZM193.154 180.181C191.373 189.31 189.291 198.618 186.966 208.054C186.857 208.496 186.748 208.944 186.633 209.386C186.165 211.263 185.691 213.14 185.204 215.03C184.858 216.356 184.512 217.688 184.16 219.021C183.853 220.161 183.545 221.301 183.238 222.442C182.738 224.28 182.232 226.119 181.713 227.957C181.611 228.329 181.514 228.7 181.406 229.072L171.438 221.058C168.613 218.784 165.596 216.779 162.444 215.004L173.571 14.9576C178.44 22.8562 185.339 36.5074 190.733 56.8913C190.765 57.0258 190.797 57.1539 190.835 57.2885C190.97 57.7945 191.098 58.3199 191.226 58.8323C192.988 65.7508 194.57 73.3996 195.845 81.8427L195.819 81.8748L186.582 93.9244C186.114 94.5394 185.839 95.2761 185.794 96.0512L181.816 167.613C181.752 168.74 182.194 169.842 183.014 170.624L193.141 180.168L193.154 180.181ZM198.817 142.437C198.753 143.296 197.927 153.603 194.813 171.181L189.586 166.255L193.404 97.6591L197.222 92.6752C198.811 107.07 199.541 123.616 198.817 142.437ZM136.628 77.4866C138.786 69.524 141.15 62.3428 143.597 55.8664C143.815 55.2962 144.027 54.7261 144.244 54.1688C144.308 54.015 144.366 53.8548 144.424 53.7011C151.983 34.3742 160.24 21.7607 165.897 14.5284L154.949 211.366C153.802 210.885 152.636 210.443 151.464 210.027C148.581 189.303 145.192 172.097 142.182 158.984L145.807 93.8219C145.846 93.0532 145.66 92.2845 145.257 91.6246L137.108 78.1272C136.98 77.9094 136.82 77.7044 136.653 77.5187C136.64 77.5059 136.634 77.493 136.628 77.4866ZM117.807 206.068C116.192 206.234 114.585 206.446 112.983 206.709L93.8804 153.75C94.6491 153.539 95.405 153.295 96.1481 153.033C96.8912 152.764 97.6278 152.462 98.3517 152.142L117.807 206.068ZM47.3599 24.7972C47.7891 23.3623 48.1991 22.1387 48.5579 21.1202C49.4867 21.6711 50.5886 22.3565 51.8313 23.1829L51.8377 23.2021L76.5072 91.5862C75.7449 91.804 74.9891 92.041 74.246 92.3101C73.4965 92.5791 72.7662 92.8739 72.0359 93.2006L47.3664 24.8164L47.3599 24.7972ZM42.6323 52.0804C43.0039 47.0901 43.5611 42.6443 44.2146 38.7239L66.3153 99.9909C66.7124 101.086 67.5837 101.945 68.6855 102.323C69.0955 102.464 69.5119 102.528 69.9283 102.528C70.6522 102.528 71.3696 102.329 71.991 101.932C73.5284 100.952 75.162 100.151 76.8532 99.5425C78.5379 98.9339 80.3125 98.5111 82.119 98.2805C83.272 98.1332 84.3034 97.4669 84.912 96.474C85.5205 95.4747 85.6422 94.2575 85.245 93.1621L63.1443 31.8951C66.1487 34.4959 69.4158 37.5644 72.8878 41.1646C86.0201 54.7838 104.412 78.6846 121.055 117.396C122.06 119.747 123.066 122.143 124.059 124.603C125.052 127.056 126.038 129.561 127.019 132.123C127.038 132.194 127.083 132.328 127.147 132.527C127.839 134.628 130.83 144.013 134.45 159.631C134.962 161.847 135.487 164.185 136.019 166.652C136.314 167.997 136.608 169.381 136.903 170.803C139.075 181.213 141.33 193.563 143.367 207.657C139.408 206.741 135.366 206.138 131.298 205.857C131.298 205.857 131.298 205.857 131.291 205.857C129.997 205.76 128.691 205.709 127.39 205.684H127.384C126.865 205.671 126.346 205.652 125.827 205.652L122.323 195.946L122.297 195.87L104.072 145.352C103.675 144.25 102.804 143.392 101.702 143.014C100.6 142.642 99.3831 142.783 98.3966 143.411C96.8592 144.385 95.2256 145.192 93.5408 145.8H93.5344C91.8496 146.409 90.0816 146.832 88.2751 147.062C87.1156 147.21 86.0907 147.876 85.4821 148.869C84.8736 149.862 84.7454 151.085 85.1426 152.181L105.411 208.361C99.5689 209.956 93.938 212.25 88.6979 215.248C68.378 180.63 59.5185 157.888 59.0445 156.646C42.6131 108.543 41.05 73.233 42.6323 52.0804ZM85.2066 226.849C85.5333 226.593 85.8728 226.343 86.2123 226.093C87.2309 225.312 88.2751 224.569 89.3385 223.857C90.4147 223.153 91.5102 222.487 92.6248 221.846C97.4421 219.091 102.631 217.003 108.012 215.574C109.261 215.248 110.517 214.947 111.779 214.69C113.054 214.428 114.335 214.204 115.622 214.018C117.23 213.781 118.851 213.589 120.478 213.467C121.817 213.364 123.156 213.32 124.501 213.294C124.514 213.294 124.533 213.294 124.552 213.294C124.559 213.294 124.559 213.294 124.565 213.294C125.859 213.268 127.153 213.275 128.441 213.32C128.441 213.32 128.441 213.32 128.447 213.32C128.492 213.326 128.543 213.326 128.595 213.326C129.857 213.377 131.119 213.467 132.374 213.589C136.474 213.973 140.542 214.716 144.494 215.824C145.859 216.209 147.204 216.638 148.543 217.106C149.914 217.586 151.272 218.105 152.611 218.675C153.245 218.95 153.873 219.239 154.494 219.533C155.769 220.129 157.012 220.763 158.241 221.442C159.503 222.147 160.753 222.89 161.963 223.678C163.565 224.729 165.128 225.843 166.621 227.048L179.087 237.073L182.328 239.674L185.557 242.275L210.688 262.473H40.3773L85.2066 226.849ZM222.955 262.473L187.908 234.299C188.042 233.838 188.164 233.383 188.299 232.922C188.651 231.673 189.003 230.436 189.343 229.213C194.077 212.275 198.029 195.645 201.104 179.56C201.13 179.425 201.149 179.284 201.155 179.15C205.486 156.409 206.472 143.161 206.492 142.924C206.492 142.886 206.498 142.847 206.498 142.802C207.376 120.016 206.171 100.426 203.872 83.8734C203.872 83.7068 203.859 83.5403 203.833 83.3802C196.043 27.8657 175.57 3.89441 173.315 1.4025C173.289 1.37045 173.27 1.3512 173.251 1.33197C173.2 1.27432 173.155 1.22952 173.142 1.2103C171.739 -0.282288 169.407 -0.410461 167.85 0.915588C167.838 0.921997 167.819 0.941223 167.799 0.960449C167.793 0.966858 167.786 0.966858 167.78 0.973267L167.774 0.979645C166.006 2.51709 142.342 23.8875 128.191 79.3251C128.152 79.4917 128.12 79.6583 128.101 79.8248C126.276 87.0252 124.597 94.8597 123.149 103.328C107.282 69.6585 90.4019 48.1727 77.9999 35.3927C61.1264 18.0068 48.6731 12.4144 48.1542 12.1838C48.103 12.1582 48.0453 12.1454 47.9941 12.1197C46.6424 11.6008 45.1499 11.8891 44.1057 12.786C44.0929 12.7988 44.0801 12.8051 44.0673 12.8116C44.016 12.8564 43.9711 12.9076 43.9199 12.9589C43.8815 12.9909 43.843 13.0294 43.8045 13.0678C43.7725 13.0998 43.747 13.1383 43.715 13.1767C43.6637 13.2344 43.6124 13.2856 43.5676 13.3497C43.5419 13.3817 43.5228 13.4137 43.4971 13.4521C43.4459 13.5162 43.401 13.5803 43.3561 13.6508C43.3241 13.702 43.2985 13.7469 43.2729 13.7981C43.2409 13.8622 43.2025 13.9198 43.1704 13.9839C43.164 13.9903 43.1576 14.0031 43.1576 14.0095C42.8052 14.7206 36.8861 26.9625 35.0092 50.9017C33.2924 72.8743 34.8042 109.504 51.7865 159.195C51.8057 159.234 51.8185 159.272 51.8313 159.311C51.9466 159.618 60.9727 183.231 82.2535 219.45C81.6385 219.905 81.0235 220.36 80.4214 220.834L28.0202 262.473H0.672974V266.316V270.16H29.359H221.603H250.289V266.316V262.473H222.955Z" fill="#D2D4DA"/>
<path d="M146.621 233.883C146.595 233.876 146.57 233.87 146.544 233.864C144.507 233.434 142.515 234.735 142.085 236.765C142.009 237.131 141.989 237.489 142.015 237.842C142.13 239.277 143.066 240.539 144.43 241.058C144.609 241.128 144.795 241.186 144.987 241.224C146.634 241.576 148.254 240.789 149.042 239.398C149.228 239.072 149.363 238.706 149.446 238.322C149.869 236.317 148.607 234.35 146.621 233.883Z" fill="#D2D4DA"/>
<path d="M145.974 227.9C146.826 227.188 147.466 226.196 147.71 225.017C148.209 222.672 147.012 220.366 144.949 219.354C144.577 219.175 144.18 219.027 143.751 218.938C140.977 218.355 138.255 220.123 137.672 222.896C137.082 225.67 138.857 228.393 141.631 228.982C143.226 229.315 144.808 228.867 145.974 227.9Z" fill="#D2D4DA"/>
<path d="M153.77 235.267C154.013 235.318 154.256 235.344 154.5 235.35C155.653 235.382 156.742 234.934 157.53 234.146C158.081 233.601 158.484 232.897 158.657 232.083C158.92 230.827 158.581 229.585 157.838 228.649C157.261 227.932 156.441 227.4 155.474 227.195C155 227.093 154.526 227.086 154.071 227.144C153.923 227.17 153.776 227.195 153.629 227.234C152.142 227.599 150.925 228.777 150.586 230.379C150.125 232.557 151.476 234.697 153.622 235.228C153.674 235.241 153.718 235.254 153.77 235.267Z" fill="#D2D4DA"/>
<path d="M165.916 230.866C163.84 230.866 162.155 232.55 162.155 234.632C162.155 236.708 163.84 238.393 165.916 238.393C167.998 238.393 169.683 236.708 169.683 234.632C169.683 232.55 167.998 230.866 165.916 230.866Z" fill="#D2D4DA"/>
<path d="M160.996 241.051C160.234 240.552 159.324 240.263 158.344 240.263C157.947 240.263 157.556 240.315 157.184 240.404C155.211 240.885 153.713 242.557 153.482 244.613C153.463 244.792 153.456 244.972 153.456 245.158C153.456 246.471 153.975 247.662 154.821 248.54C155.327 249.072 155.961 249.488 156.666 249.744C156.819 249.802 156.973 249.847 157.133 249.892C157.524 249.988 157.928 250.045 158.344 250.045C158.575 250.045 158.799 250.026 159.023 249.994C159.555 249.917 160.061 249.757 160.528 249.526C160.868 249.36 161.188 249.155 161.477 248.911C162.553 248.015 163.238 246.663 163.238 245.158C163.238 243.434 162.348 241.923 160.996 241.051Z" fill="#D2D4DA"/>
<path d="M68.6852 248.002C66.1164 248.002 64.0408 250.077 64.0408 252.646C64.0408 255.209 66.1164 257.284 68.6852 257.284C71.2476 257.284 73.3232 255.209 73.3232 252.646C73.3232 250.077 71.2476 248.002 68.6852 248.002Z" fill="#D2D4DA"/>
<path d="M83.041 242.915C83.041 240.097 80.7605 237.816 77.9482 237.816C75.136 237.816 72.8555 240.097 72.8555 242.915C72.8555 245.728 75.136 248.008 77.9482 248.008C80.7605 248.008 83.041 245.728 83.041 242.915Z" fill="#D2D4DA"/>
<path d="M81.3435 251.666C79.4025 251.666 77.8331 253.235 77.8331 255.176C77.8331 257.111 79.2103 258.681 81.3435 258.681C83.4703 258.681 84.8476 257.111 84.8476 255.176C84.8476 253.235 83.2781 251.666 81.3435 251.666Z" fill="#D2D4DA"/>
</svg>
