<svg width="24" height="24" viewBox="0 0 24 24" fill="none" xmlns="http://www.w3.org/2000/svg">
<circle cx="12" cy="12" r="12" fill="#FAF9ED"/>
<path d="M16.5 12.5625H7.5C7.1925 12.5625 6.9375 12.3075 6.9375 12C6.9375 11.6925 7.1925 11.4375 7.5 11.4375H16.5C16.8075 11.4375 17.0625 11.6925 17.0625 12C17.0625 12.3075 16.8075 12.5625 16.5 12.5625Z" fill="#292D32"/>
<path d="M12 17.0625C11.6925 17.0625 11.4375 16.8075 11.4375 16.5V7.5C11.4375 7.1925 11.6925 6.9375 12 6.9375C12.3075 6.9375 12.5625 7.1925 12.5625 7.5V16.5C12.5625 16.8075 12.3075 17.0625 12 17.0625Z" fill="#292D32"/>
</svg>
