<svg width="69" height="47" viewBox="0 0 69 47" fill="none" xmlns="http://www.w3.org/2000/svg">
<path d="M15.5373 46.9982C23.5223 47.1187 30.1714 41.1615 31.3606 33.352C31.3618 33.346 35.6685 10.5901 13.4049 0.0497196C13.0011 -0.141442 12.5691 0.250396 12.7052 0.684169C13.2695 2.48272 13.9663 6.32844 12.3022 11.9122C11.7173 13.8748 10.3792 15.5161 8.59592 16.4512C3.49398 19.1266 0.00147758 24.5643 -9.59179e-07 30.838C-0.00205183 39.631 6.95362 46.8687 15.5373 46.9982Z" fill="#D2D4DA"/>
<path d="M52.8408 46.9982C60.8258 47.1187 67.4749 41.1615 68.6641 33.352C68.6653 33.346 72.9721 10.5901 50.7084 0.0497163C50.3046 -0.141446 49.8726 0.250392 50.0087 0.684165C50.573 2.48272 51.2699 6.32844 49.6057 11.9122C49.0208 13.8748 47.6827 15.5161 45.8994 16.4512C40.7975 19.1266 37.305 24.5643 37.3035 30.838C37.3015 39.631 44.2571 46.8687 52.8408 46.9982Z" fill="#D2D4DA"/>
</svg>
