<svg width="69" height="47" viewBox="0 0 69 47" fill="none" xmlns="http://www.w3.org/2000/svg">
<path d="M53.4627 46.9982C45.4777 47.1187 38.8286 41.1615 37.6394 33.352C37.6382 33.346 33.3315 10.5901 55.5951 0.0497196C55.9989 -0.141442 56.4309 0.250396 56.2948 0.684169C55.7305 2.48272 55.0337 6.32844 56.6978 11.9122C57.2827 13.8748 58.6208 15.5161 60.4041 16.4512C65.506 19.1266 68.9985 24.5643 69 30.838C69.0021 39.631 62.0464 46.8687 53.4627 46.9982Z" fill="#D2D4DA"/>
<path d="M16.1592 46.9982C8.17419 47.1187 1.52507 41.1615 0.335885 33.352C0.334695 33.346 -3.97207 10.5901 18.2916 0.0497163C18.6954 -0.141446 19.1274 0.250392 18.9913 0.684165C18.427 2.48272 17.7301 6.32844 19.3943 11.9122C19.9792 13.8748 21.3173 15.5161 23.1006 16.4512C28.2025 19.1266 31.695 24.5643 31.6965 30.838C31.6985 39.631 24.7429 46.8687 16.1592 46.9982Z" fill="#D2D4DA"/>
</svg>
