<svg width="18" height="19" viewBox="0 0 18 19" fill="none" xmlns="http://www.w3.org/2000/svg">
<path d="M3.68721 2.92114C3.60997 2.84945 3.50871 2.80927 3.40334 2.80848C3.29797 2.8077 3.19612 2.84638 3.11783 2.91691C3.03954 2.98744 2.99048 3.08472 2.9803 3.1896C2.97012 3.29448 2.99957 3.39937 3.06283 3.48364L4.53096 5.10083C1.90971 6.64067 0.788223 9.10864 0.739707 9.21903C0.715669 9.27303 0.703247 9.33148 0.703247 9.39059C0.703247 9.4497 0.715669 9.50815 0.739707 9.56215C0.763613 9.6163 1.34861 10.9136 2.65502 12.22C3.86721 13.4307 5.94986 14.8743 9.00002 14.8743C10.2749 14.882 11.5363 14.6121 12.6963 14.0832L14.3135 15.8615C14.3889 15.9442 14.494 15.9937 14.6058 15.999C14.7177 16.0043 14.827 15.9649 14.9098 15.8896C14.9926 15.8142 15.0421 15.7091 15.0473 15.5973C15.0526 15.4855 15.0132 15.3761 14.9379 15.2933L3.68721 2.92114ZM7.1058 7.93583L10.2699 11.4177C9.79482 11.7145 9.23062 11.8351 8.67574 11.7584C8.12085 11.6817 7.61052 11.4126 7.2338 10.9981C6.85708 10.5835 6.63789 10.0498 6.6145 9.49016C6.59111 8.93049 6.76499 8.38038 7.1058 7.93583ZM9.00002 14.0305C6.79361 14.0305 4.86705 13.2275 3.27307 11.6448C2.60471 10.9809 2.03926 10.2209 1.59541 9.38989C1.89705 8.81333 3.00869 6.9163 5.11104 5.73997L6.53135 7.30161C6.02567 7.90082 5.75488 8.66333 5.76935 9.44727C5.78381 10.2312 6.08256 10.9832 6.61001 11.5633C7.13745 12.1435 7.85768 12.5123 8.6367 12.6011C9.41573 12.69 10.2005 12.4928 10.845 12.0463L12.0973 13.4244C11.1155 13.8307 10.0625 14.0367 9.00002 14.0305ZM9.45002 7.04145C9.34009 7.02047 9.243 6.95668 9.1801 6.86412C9.1172 6.77155 9.09365 6.65779 9.11463 6.54786C9.13561 6.43793 9.1994 6.34083 9.29196 6.27794C9.38453 6.21504 9.49829 6.19149 9.60822 6.21247C10.2952 6.34592 10.9206 6.6978 11.3914 7.21565C11.8621 7.7335 12.1528 8.38959 12.2203 9.08614C12.2255 9.14131 12.2197 9.19695 12.2033 9.24989C12.1869 9.30282 12.1603 9.35201 12.1249 9.39465C12.0895 9.43729 12.0461 9.47253 11.997 9.49838C11.948 9.52422 11.8944 9.54016 11.8392 9.54528H11.7999C11.6944 9.54572 11.5925 9.50662 11.5144 9.43569C11.4363 9.36475 11.3877 9.26713 11.378 9.16208C11.3278 8.64812 11.1131 8.16408 10.7657 7.78199C10.4184 7.3999 9.95689 7.14017 9.45002 7.04145ZM17.2603 9.56215C17.2315 9.62684 16.5312 11.1793 14.9499 12.594C14.9088 12.6325 14.8606 12.6623 14.8078 12.6818C14.7551 12.7014 14.699 12.7101 14.6429 12.7077C14.5867 12.7052 14.5316 12.6915 14.4808 12.6675C14.43 12.6434 14.3845 12.6094 14.347 12.5675C14.3095 12.5256 14.2808 12.4767 14.2625 12.4235C14.2442 12.3704 14.2367 12.3141 14.2404 12.258C14.2442 12.2019 14.2591 12.1471 14.2844 12.0969C14.3096 12.0466 14.3446 12.002 14.3874 11.9654C15.2048 11.2311 15.8875 10.3594 16.4046 9.38989C15.9607 8.55898 15.3952 7.79897 14.727 7.13497C13.133 5.55223 11.2064 4.74926 9.00002 4.74926C8.53623 4.74871 8.07318 4.78634 7.61557 4.86176C7.56047 4.87215 7.50385 4.87145 7.44902 4.8597C7.3942 4.84795 7.34226 4.82539 7.29626 4.79334C7.25025 4.76129 7.2111 4.72039 7.18108 4.67303C7.15107 4.62567 7.13079 4.5728 7.12145 4.51752C7.1121 4.46223 7.11387 4.40564 7.12665 4.35104C7.13942 4.29645 7.16296 4.24495 7.19587 4.19955C7.22878 4.15416 7.27042 4.11578 7.31833 4.08666C7.36625 4.05755 7.41949 4.03827 7.47494 4.02997C7.97897 3.9463 8.48909 3.90467 9.00002 3.90552C12.0502 3.90552 14.1328 5.34973 15.345 6.56051C16.6514 7.86692 17.2364 9.16208 17.2603 9.21903C17.2844 9.27303 17.2968 9.33148 17.2968 9.39059C17.2968 9.4497 17.2844 9.50815 17.2603 9.56215Z" fill="black"/>
</svg>
